<svg id="visual" viewBox="0 0 900 600" width="900" height="600" xmlns="http://www.w3.org/2000/svg" xmlns:xlink="http://www.w3.org/1999/xlink" version="1.1"><rect x="0" y="0" width="900" height="600" fill="#001220"></rect><path d="M0 168L21.5 166.8C43 165.7 86 163.3 128.8 156.3C171.7 149.3 214.3 137.7 257.2 131.3C300 125 343 124 385.8 133.3C428.7 142.7 471.3 162.3 514.2 173.8C557 185.3 600 188.7 642.8 186.2C685.7 183.7 728.3 175.3 771.2 167C814 158.7 857 150.3 878.5 146.2L900 142L900 0L878.5 0C857 0 814 0 771.2 0C728.3 0 685.7 0 642.8 0C600 0 557 0 514.2 0C471.3 0 428.7 0 385.8 0C343 0 300 0 257.2 0C214.3 0 171.7 0 128.8 0C86 0 43 0 21.5 0L0 0Z" fill="#00ff00"></path><path d="M0 115L21.5 120.5C43 126 86 137 128.8 135.7C171.7 134.3 214.3 120.7 257.2 118C300 115.3 343 123.7 385.8 131.7C428.7 139.7 471.3 147.3 514.2 149.7C557 152 600 149 642.8 142.8C685.7 136.7 728.3 127.3 771.2 118.8C814 110.3 857 102.7 878.5 98.8L900 95L900 0L878.5 0C857 0 814 0 771.2 0C728.3 0 685.7 0 642.8 0C600 0 557 0 514.2 0C471.3 0 428.7 0 385.8 0C343 0 300 0 257.2 0C214.3 0 171.7 0 128.8 0C86 0 43 0 21.5 0L0 0Z" fill="#00ee2f"></path><path d="M0 100L21.5 99.2C43 98.3 86 96.7 128.8 96C171.7 95.3 214.3 95.7 257.2 92.3C300 89 343 82 385.8 86.8C428.7 91.7 471.3 108.3 514.2 109.5C557 110.7 600 96.3 642.8 90.3C685.7 84.3 728.3 86.7 771.2 91.7C814 96.7 857 104.3 878.5 108.2L900 112L900 0L878.5 0C857 0 814 0 771.2 0C728.3 0 685.7 0 642.8 0C600 0 557 0 514.2 0C471.3 0 428.7 0 385.8 0C343 0 300 0 257.2 0C214.3 0 171.7 0 128.8 0C86 0 43 0 21.5 0L0 0Z" fill="#00dc41"></path><path d="M0 84L21.5 80.3C43 76.7 86 69.3 128.8 69.2C171.7 69 214.3 76 257.2 75.8C300 75.7 343 68.3 385.8 67C428.7 65.7 471.3 70.3 514.2 71.5C557 72.7 600 70.3 642.8 69.2C685.7 68 728.3 68 771.2 70.2C814 72.3 857 76.7 878.5 78.8L900 81L900 0L878.5 0C857 0 814 0 771.2 0C728.3 0 685.7 0 642.8 0C600 0 557 0 514.2 0C471.3 0 428.7 0 385.8 0C343 0 300 0 257.2 0C214.3 0 171.7 0 128.8 0C86 0 43 0 21.5 0L0 0Z" fill="#0dca4d"></path><path d="M0 28L21.5 32C43 36 86 44 128.8 45.7C171.7 47.3 214.3 42.7 257.2 40.3C300 38 343 38 385.8 39.2C428.7 40.3 471.3 42.7 514.2 42C557 41.3 600 37.7 642.8 37.7C685.7 37.7 728.3 41.3 771.2 44.3C814 47.3 857 49.7 878.5 50.8L900 52L900 0L878.5 0C857 0 814 0 771.2 0C728.3 0 685.7 0 642.8 0C600 0 557 0 514.2 0C471.3 0 428.7 0 385.8 0C343 0 300 0 257.2 0C214.3 0 171.7 0 128.8 0C86 0 43 0 21.5 0L0 0Z" fill="#1db954"></path></svg>